<svg xmlns="http://www.w3.org/2000/svg" viewBox="0 0 400 240" fill="none" role="img" aria-label="LED galaxy star projector">
  <defs>
    <linearGradient id="bg" x1="0" y1="0" x2="400" y2="240" gradientUnits="userSpaceOnUse">
      <stop stop-color="#1B2350"/><stop offset="1" stop-color="#0B1220"/>
    </linearGradient>
    <radialGradient id="glow" cx="0.5" cy="0.35" r="0.6">
      <stop stop-color="#6E86FF" stop-opacity="0.55"/><stop offset="1" stop-color="#6E86FF" stop-opacity="0"/>
    </radialGradient>
    <linearGradient id="dome" x1="0" y1="0" x2="0" y2="1">
      <stop stop-color="#3A5BF0"/><stop offset="1" stop-color="#1D3FE6"/>
    </linearGradient>
  </defs>
  <rect width="400" height="240" fill="url(#bg)"/>
  <rect width="400" height="240" fill="url(#glow)"/>
  <!-- stars -->
  <g fill="#fff">
    <circle cx="70" cy="50" r="2.4"/><circle cx="120" cy="90" r="1.6"/><circle cx="320" cy="60" r="2.6"/>
    <circle cx="350" cy="120" r="1.8"/><circle cx="60" cy="150" r="1.8"/><circle cx="300" cy="170" r="2.2"/>
    <circle cx="150" cy="40" r="1.4"/><circle cx="250" cy="48" r="1.6" opacity="0.9"/>
  </g>
  <g fill="#9FB0FF">
    <path d="M95 70 l2 6 6 2 -6 2 -2 6 -2 -6 -6 -2 6 -2z"/>
    <path d="M330 95 l1.6 5 5 1.6 -5 1.6 -1.6 5 -1.6 -5 -5 -1.6 5 -1.6z"/>
    <path d="M110 175 l1.4 4 4 1.4 -4 1.4 -1.4 4 -1.4 -4 -4 -1.4 4 -1.4z"/>
  </g>
  <!-- device -->
  <ellipse cx="200" cy="208" rx="60" ry="11" fill="#000" opacity="0.25"/>
  <rect x="158" y="176" width="84" height="26" rx="10" fill="#2A3566"/>
  <path d="M162 176 C162 142 180 122 200 122 C220 122 238 142 238 176 Z" fill="url(#dome)"/>
  <ellipse cx="200" cy="150" rx="22" ry="26" fill="#BFD0FF" opacity="0.9"/>
  <ellipse cx="200" cy="150" rx="11" ry="14" fill="#fff"/>
  <circle cx="180" cy="190" r="4" fill="#6E86FF"/>
  <circle cx="220" cy="190" r="4" fill="#FF4D8D"/>
</svg>
